<svg id="wave" style="transform:rotate(0deg); transition: 0.3s" viewBox="0 0 1440 120" version="1.1" xmlns="http://www.w3.org/2000/svg"><defs><linearGradient id="sw-gradient-0" x1="0" x2="0" y1="1" y2="0"><stop stop-color="rgba(163, 182, 162, 1)" offset="0%"></stop><stop stop-color="rgba(114, 137, 112, 1)" offset="100%"></stop></linearGradient></defs><path style="transform:translate(0, 0px); opacity:1" fill="url(#sw-gradient-0)" d="M0,60L120,66C240,72,480,84,720,78C960,72,1200,48,1440,48C1680,48,1920,72,2160,78C2400,84,2640,72,2880,58C3120,44,3360,28,3600,32C3840,36,4080,60,4320,64C4560,68,4800,52,5040,48C5280,44,5520,52,5760,56C6000,60,6240,60,6480,62C6720,64,6960,68,7200,60C7440,52,7680,32,7920,30C8160,28,8400,44,8640,54C8880,64,9120,68,9360,76C9600,84,9840,96,10080,84C10320,72,10560,36,10800,36C11040,36,11280,72,11520,78C11760,84,12000,60,12240,48C12480,36,12720,36,12960,36C13200,36,13440,36,13680,40C13920,44,14160,52,14400,52C14640,52,14880,44,15120,44C15360,44,15600,52,15840,60C16080,68,16320,76,16560,68C16800,60,17040,36,17160,24L17280,12L17280,120L17160,120C17040,120,16800,120,16560,120C16320,120,16080,120,15840,120C15600,120,15360,120,15120,120C14880,120,14640,120,14400,120C14160,120,13920,120,13680,120C13440,120,13200,120,12960,120C12720,120,12480,120,12240,120C12000,120,11760,120,11520,120C11280,120,11040,120,10800,120C10560,120,10320,120,10080,120C9840,120,9600,120,9360,120C9120,120,8880,120,8640,120C8400,120,8160,120,7920,120C7680,120,7440,120,7200,120C6960,120,6720,120,6480,120C6240,120,6000,120,5760,120C5520,120,5280,120,5040,120C4800,120,4560,120,4320,120C4080,120,3840,120,3600,120C3360,120,3120,120,2880,120C2640,120,2400,120,2160,120C1920,120,1680,120,1440,120C1200,120,960,120,720,120C480,120,240,120,120,120L0,120Z"></path></svg>